<?xml version="1.0" encoding="UTF-8" standalone="no"?>
<!-- Generator: Adobe Illustrator 16.0.0, SVG Export Plug-In . SVG Version: 6.00 Build 0)  -->

<svg
   xmlns:dc="http://purl.org/dc/elements/1.1/"
   xmlns:cc="http://creativecommons.org/ns#"
   xmlns:rdf="http://www.w3.org/1999/02/22-rdf-syntax-ns#"
   xmlns:svg="http://www.w3.org/2000/svg"
   xmlns="http://www.w3.org/2000/svg"
   xmlns:sodipodi="http://sodipodi.sourceforge.net/DTD/sodipodi-0.dtd"
   xmlns:inkscape="http://www.inkscape.org/namespaces/inkscape"
   version="1.1"
   id="Capa_1"
   x="0px"
   y="0px"
   width="579.16px"
   height="579.16px"
   viewBox="0 0 579.16 579.16"
   style="enable-background:new 0 0 579.16 579.16;"
   xml:space="preserve"
   sodipodi:docname="cog.svg"
   inkscape:version="0.92.5 (2060ec1f9f, 2020-04-08)"><metadata
   id="metadata43"><rdf:RDF><cc:Work
       rdf:about=""><dc:format>image/svg+xml</dc:format><dc:type
         rdf:resource="http://purl.org/dc/dcmitype/StillImage" /><dc:title></dc:title></cc:Work></rdf:RDF></metadata><defs
   id="defs41" /><sodipodi:namedview
   pagecolor="#ffffff"
   bordercolor="#666666"
   borderopacity="1"
   objecttolerance="10"
   gridtolerance="10"
   guidetolerance="10"
   inkscape:pageopacity="0"
   inkscape:pageshadow="2"
   inkscape:window-width="1594"
   inkscape:window-height="850"
   id="namedview39"
   showgrid="false"
   inkscape:zoom="0.40748672"
   inkscape:cx="289.57999"
   inkscape:cy="289.57999"
   inkscape:window-x="0"
   inkscape:window-y="0"
   inkscape:window-maximized="0"
   inkscape:current-layer="Capa_1" />
<g
   id="g6">
	<g
   id="g4">
		<path
   d="M569.979,353.841h9.181v-9.18v-107.1v-9.18h-9.181H497.1c-4.287-14.669-10.128-28.859-17.433-42.338l51.46-51.46    l6.49-6.49l-6.49-6.49l-75.731-75.732l-6.49-6.494l-6.491,6.494l-51.649,51.649c-12.781-6.848-26.182-12.399-39.985-16.561V9.182    v-9.18h-9.18H234.5h-9.18v9.18v71.781c-13.109,3.954-25.839,9.146-37.993,15.49l-50.582-50.582l-6.49-6.494l-6.49,6.494    L48.033,121.6l-6.49,6.49l6.49,6.491l49.483,49.483c-7.316,13.155-13.225,26.98-17.631,41.255H9.18H0v9.18v107.1v9.181h9.18H79    c4.495,15.379,10.704,30.232,18.522,44.309l-49.489,49.489l-6.49,6.49l6.49,6.49l75.732,75.732l6.49,6.493l6.49-6.493    l50.579-50.579c13.06,6.833,26.821,12.316,41.056,16.358v70.909v9.181h9.18H344.66h9.18v-9.181v-72.724    c12.727-4.033,25.102-9.263,36.931-15.608l51.645,51.64l6.49,6.494l6.49-6.494l75.731-75.731l6.49-6.49l-6.49-6.49l-51.46-51.46    c6.814-12.567,12.356-25.731,16.542-39.278h73.771V353.841z M418.1,289.582c0,71.711-58.339,130.05-130.05,130.05    S158,361.292,158,289.582s58.339-130.05,130.05-130.05S418.1,217.871,418.1,289.582z"
   id="path2" />
	</g>
</g>
<g
   id="g8">
</g>
<g
   id="g10">
</g>
<g
   id="g12">
</g>
<g
   id="g14">
</g>
<g
   id="g16">
</g>
<g
   id="g18">
</g>
<g
   id="g20">
</g>
<g
   id="g22">
</g>
<g
   id="g24">
</g>
<g
   id="g26">
</g>
<g
   id="g28">
</g>
<g
   id="g30">
</g>
<g
   id="g32">
</g>
<g
   id="g34">
</g>
<g
   id="g36">
</g>
<path
   style="fill:#ffffff;stroke-width:2.45406771"
   d="m 229.20992,538.59085 c 0,-36.50357 -0.43038,-40.70008 -4.29462,-41.87553 -2.36204,-0.71847 -11.99152,-4.56576 -21.39884,-8.5495 l -17.10422,-7.24313 -28.3276,28.25378 -28.3276,28.2538 L 86.875598,494.49623 43.994152,451.56222 71.78989,423.6874 99.585627,395.81258 93.587098,383.80193 c -3.299192,-6.60589 -7.965837,-17.25625 -10.370323,-23.6675 L 78.844983,348.47761 H 39.913305 0.98162707 V 287.12592 225.77423 H 41.473744 c 27.019121,0 40.492117,-0.87007 40.492117,-2.61491 0,-1.4382 3.897766,-11.05111 8.6617,-21.36202 L 99.289262,183.05018 71.641706,155.32397 43.994152,127.59776 86.875598,84.663733 129.75704,41.729703 158.04371,69.942674 186.33037,98.155647 205.9296,89.638162 225.52882,81.12068 226.20167,40.56034 226.87453,0 h 61.23302 61.23301 l 0.67286,40.58235 0.67285,40.582348 20.50266,8.842882 20.50263,8.84288 28.55975,-28.559741 28.55973,-28.559742 43.57303,43.522586 43.57302,43.522587 -28.58844,28.66311 -28.58844,28.66312 7.56587,17.99537 c 4.16124,9.89746 8.15926,19.92795 8.88453,22.28999 1.18635,3.86375 5.38889,4.29462 41.8878,4.29462 h 40.56912 v 61.35169 61.3517 l -41.10563,0.0618 -41.10563,0.0618 -8.28965,19.8327 -8.28962,19.83267 28.53006,28.60459 28.53003,28.60456 -43.57302,43.5226 -43.57303,43.52257 -28.53713,-28.53715 -28.53715,-28.53713 -19.84994,8.29698 -19.84995,8.29701 -0.0618,41.10563 -0.0617,41.10551 h -61.3517 -61.35169 z M 322.6326,415.68854 c 45.35507,-13.46444 78.11906,-46.22843 91.5835,-91.5835 5.15506,-17.36481 5.15506,-51.68529 0,-69.0501 -13.46444,-45.35508 -46.22843,-78.11907 -91.5835,-91.58352 -7.89577,-2.34399 -22.22473,-3.95702 -35.15128,-3.95702 -59.57406,0 -110.75221,39.33877 -126.10943,96.93567 -4.2037,15.76587 -4.2037,50.49397 0,66.25983 11.6693,43.76545 44.69277,77.66231 89.92464,92.30291 17.63162,5.70698 53.2517,6.04439 71.33607,0.67573 z"
   id="path45"
   inkscape:connector-curvature="0" /></svg>